<?xml version="1.0" encoding="UTF-8"?>
<svg id="Layer_2" data-name="Layer 2" xmlns="http://www.w3.org/2000/svg" viewBox="0 0 274.11 242.76">
  <defs>
    <style>
      .cls-1 {
        fill: #000000;
        stroke-width: 0px;
      }
    </style>
  </defs>
  <g id="Layer_2-2" data-name="Layer 2">
    <g>
      <path class="cls-1" d="m245.79,73.05s0-.01-.02-.02c-.07-.16-.14-.32-.21-.48-.31-1.08-.33-4,5-9.66,7-7.44,23.56-29.72,23.56-29.72l-36.86,24.01L30.77,191.3s0,0,0,0L0,211.22l36.22-12.36,75.28-29.75s50.44-23.11,73.33-8.22c22.17,14.42,27.45,55.1-22.5,81.88,53.97-13.06,94.06-61.67,94.06-119.65,0-17.83-3.8-34.78-10.62-50.08v.02Z"/>
      <path class="cls-1" d="m77.28,117.56c18.23-4.46,69.28-29.7,86-38.44,38.89-20.34,54.21-27.25,65.9-33.17C206.61,17.93,172.05,0,133.28,0c-32.33,0-61.73,12.46-83.7,32.84-6.01,7.67-13.86,18.16-15.85,22.94-3.33,8-28.22,79.33,43.56,61.78Z"/>
    </g>
  </g>
</svg>
